<?xml version="1.0" encoding="utf-8"?>
<!-- Generator: Adobe Illustrator 21.0.0, SVG Export Plug-In . SVG Version: 6.00 Build 0)  -->
<svg version="1.1" id="Layer_1" xmlns="http://www.w3.org/2000/svg" xmlns:xlink="http://www.w3.org/1999/xlink" x="0px" y="0px"
	 viewBox="19.6 -7.6 51.5 49.5" style="enable-background:new 19.6 -7.6 51.5 49.5;" xml:space="preserve">
<style type="text/css">
	.st0{fill:#826550;}
</style>
<path class="st0" d="M70.5-7.6c-0.1,0-0.2,0-0.2,0C68,0.1,67.3,9.5,60.9,13.1c-1.2-3.4-4.1-4.9-7.4-6.4c-2.1-0.9-4.5-2.6-6.6-2.6
	c-0.5,0-1,0-1.5,0.3c-0.5-0.3-1-0.3-1.5-0.3c-2.1,0.1-4.5,1.7-6.6,2.6c-3.3,1.5-6.3,3-7.4,6.4c-6.4-3.6-7.1-12.9-9.4-20.6
	c-0.1,0-0.2,0-0.2,0c-0.3,0.7-0.4,1.6-0.6,2.4c0,1.9,0.5,21.5,1.9,28.4c1.2,6.3,6.1,10.8,10.8,13.8c3.3,2.1,8.5,4.8,13,4.8
	c4.5,0,9.7-2.8,13-4.8c4.7-3,9.6-7.5,10.8-13.8c1.4-7,1.9-26.5,1.9-28.4C70.9-6,70.8-6.9,70.5-7.6z M56.6,20.5
	c-0.2,1.6-1.7,3.4-3.4,3.5c-3,0.2-4.5-4.4-7.9-4.4c-3.4,0-4.9,4.5-7.9,4.4c-1.7-0.1-3.1-1.9-3.4-3.5c-0.3-1.9,0.6-4.6,1.7-5.6
	c1.1-1.1,2.8-0.9,4.7-1.2c2-0.3,3.8-0.9,4.9-1.9c0,0,0,0,0,0c1.1,1.1,2.8,1.7,4.9,1.9c1.9,0.3,3.6,0.1,4.7,1.2
	C56,15.9,56.9,18.5,56.6,20.5z"/>
</svg>
