<svg id="Layer_1" xmlns="http://www.w3.org/2000/svg" viewBox="19.6 -7.6 51.5 49.5"><style>.st0{fill:#826550}</style><path class="st0" d="M70.5-7.6h-.2c-2.3 7.7-3 17.1-9.4 20.7-1.2-3.4-4.1-4.9-7.4-6.4-2.1-.9-4.5-2.6-6.6-2.6-.5 0-1 0-1.5.3-.5-.3-1-.3-1.5-.3-2.1.1-4.5 1.7-6.6 2.6-3.3 1.5-6.3 3-7.4 6.4C23.5 9.5 22.8.2 20.5-7.5h-.2c-.3.7-.4 1.6-.6 2.4 0 1.9.5 21.5 1.9 28.4 1.2 6.3 6.1 10.8 10.8 13.8 3.3 2.1 8.5 4.8 13 4.8s9.7-2.8 13-4.8c4.7-3 9.6-7.5 10.8-13.8 1.4-7 1.9-26.5 1.9-28.4-.2-.9-.3-1.8-.6-2.5zM56.6 20.5c-.2 1.6-1.7 3.4-3.4 3.5-3 .2-4.5-4.4-7.9-4.4-3.4 0-4.9 4.5-7.9 4.4-1.7-.1-3.1-1.9-3.4-3.5-.3-1.9.6-4.6 1.7-5.6 1.1-1.1 2.8-.9 4.7-1.2 2-.3 3.8-.9 4.9-1.9 1.1 1.1 2.8 1.7 4.9 1.9 1.9.3 3.6.1 4.7 1.2 1.1 1 2 3.6 1.7 5.6z"/></svg>